<svg width="2560" height="388" viewBox="0 0 2560 388" fill="none" xmlns="http://www.w3.org/2000/svg">
<path d="M136.068 225.5V157.82H146.34L170.34 202.076L194.244 157.82H204.324V225.5H193.188V179.9L173.796 215.228H166.596L147.204 180.092V225.5H136.068ZM254.356 226.46C247.828 226.46 242.1 225.02 237.172 222.14C232.308 219.26 228.532 215.228 225.844 210.044C223.156 204.796 221.812 198.652 221.812 191.612C221.812 184.508 223.156 178.364 225.844 173.18C228.532 167.996 232.308 163.996 237.172 161.18C242.036 158.3 247.764 156.86 254.356 156.86C260.948 156.86 266.676 158.3 271.54 161.18C276.404 163.996 280.18 167.996 282.868 173.18C285.556 178.364 286.9 184.476 286.9 191.516C286.9 198.62 285.556 204.796 282.868 210.044C280.18 215.228 276.404 219.26 271.54 222.14C266.676 225.02 260.948 226.46 254.356 226.46ZM254.356 215.9C260.564 215.9 265.396 213.756 268.852 209.468C272.308 205.18 274.036 199.228 274.036 191.612C274.036 183.932 272.308 177.98 268.852 173.756C265.46 169.532 260.628 167.42 254.356 167.42C248.148 167.42 243.316 169.532 239.86 173.756C236.404 177.98 234.676 183.932 234.676 191.612C234.676 199.228 236.404 205.18 239.86 209.468C243.316 213.756 248.148 215.9 254.356 215.9ZM304.195 225.5V157.82H333.571C340.995 157.82 346.723 159.612 350.755 163.196C354.787 166.716 356.803 171.676 356.803 178.076C356.803 183.132 355.491 187.324 352.867 190.652C350.243 193.916 346.467 196.124 341.539 197.276C344.803 198.3 347.491 200.764 349.603 204.668L360.931 225.5H347.395L335.683 203.9C334.531 201.788 333.155 200.348 331.555 199.58C330.019 198.812 328.035 198.428 325.603 198.428H316.483V225.5H304.195ZM316.483 189.308H331.459C340.419 189.308 344.899 185.66 344.899 178.364C344.899 171.132 340.419 167.516 331.459 167.516H316.483V189.308ZM397.948 226.46C392.636 226.46 387.708 225.788 383.164 224.444C378.62 223.036 374.78 221.148 371.644 218.78L375.388 209.084C378.524 211.324 381.948 213.052 385.66 214.268C389.436 215.484 393.532 216.092 397.948 216.092C403.004 216.092 406.684 215.26 408.988 213.596C411.292 211.868 412.444 209.66 412.444 206.972C412.444 204.732 411.612 202.972 409.948 201.692C408.348 200.412 405.564 199.356 401.596 198.524L391.036 196.316C379.004 193.756 372.988 187.58 372.988 177.788C372.988 173.564 374.108 169.884 376.348 166.748C378.588 163.612 381.692 161.18 385.66 159.452C389.628 157.724 394.204 156.86 399.388 156.86C403.996 156.86 408.316 157.564 412.348 158.972C416.38 160.316 419.74 162.236 422.428 164.732L418.684 173.948C413.372 169.468 406.908 167.228 399.292 167.228C394.876 167.228 391.42 168.156 388.924 170.012C386.428 171.868 385.18 174.3 385.18 177.308C385.18 179.612 385.948 181.468 387.484 182.876C389.02 184.22 391.644 185.276 395.356 186.044L405.82 188.252C412.156 189.596 416.86 191.708 419.932 194.588C423.068 197.468 424.636 201.308 424.636 206.108C424.636 210.14 423.548 213.692 421.372 216.764C419.196 219.836 416.092 222.236 412.06 223.964C408.092 225.628 403.388 226.46 397.948 226.46ZM439.983 225.5V157.82H452.271V186.044H487.119V157.82H499.407V225.5H487.119V196.316H452.271V225.5H439.983ZM547.161 226.46C537.881 226.46 530.777 224.06 525.849 219.26C520.985 214.396 518.553 207.228 518.553 197.756V157.82H530.841V197.66C530.841 203.74 532.217 208.316 534.969 211.388C537.785 214.396 541.849 215.9 547.161 215.9C557.977 215.9 563.385 209.82 563.385 197.66V157.82H575.577V197.756C575.577 207.228 573.177 214.396 568.377 219.26C563.577 224.06 556.505 226.46 547.161 226.46Z" fill="#24273A"/>
<path d="M1708.13 226.46C1700.64 226.46 1694.31 225.052 1689.12 222.236C1684 219.42 1680.1 215.42 1677.41 210.236C1674.72 205.052 1673.38 198.908 1673.38 191.804C1673.38 184.636 1674.75 178.46 1677.51 173.276C1680.26 168.028 1684.23 163.996 1689.41 161.18C1694.59 158.3 1700.8 156.86 1708.03 156.86C1712.77 156.86 1717.22 157.564 1721.38 158.972C1725.54 160.316 1728.99 162.204 1731.75 164.636L1727.62 174.236C1724.61 171.868 1721.54 170.172 1718.4 169.148C1715.27 168.124 1711.81 167.612 1708.03 167.612C1700.87 167.612 1695.43 169.692 1691.71 173.852C1688.07 178.012 1686.24 183.996 1686.24 191.804C1686.24 199.676 1688.13 205.66 1691.91 209.756C1695.68 213.852 1701.28 215.9 1708.71 215.9C1710.82 215.9 1712.96 215.74 1715.14 215.42C1717.38 215.036 1719.59 214.492 1721.76 213.788V198.044H1706.21V188.924H1732.03V221.468C1728.9 223.004 1725.19 224.22 1720.9 225.116C1716.61 226.012 1712.35 226.46 1708.13 226.46ZM1751.07 225.5V157.82H1780.45C1787.87 157.82 1793.6 159.612 1797.63 163.196C1801.67 166.716 1803.68 171.676 1803.68 178.076C1803.68 183.132 1802.37 187.324 1799.75 190.652C1797.12 193.916 1793.35 196.124 1788.42 197.276C1791.68 198.3 1794.37 200.764 1796.48 204.668L1807.81 225.5H1794.27L1782.56 203.9C1781.41 201.788 1780.03 200.348 1778.43 199.58C1776.9 198.812 1774.91 198.428 1772.48 198.428H1763.36V225.5H1751.07ZM1763.36 189.308H1778.34C1787.3 189.308 1791.78 185.66 1791.78 178.364C1791.78 171.132 1787.3 167.516 1778.34 167.516H1763.36V189.308ZM1813.17 225.5L1843.8 157.82H1853.88L1884.5 225.5H1872.02L1865.3 209.852H1832.28L1825.65 225.5H1813.17ZM1848.69 171.164L1836.5 200.06H1861.08L1848.88 171.164H1848.69ZM1896.7 225.5V157.82H1926.08C1933.5 157.82 1939.23 159.676 1943.26 163.388C1947.3 167.1 1949.31 172.284 1949.31 178.94C1949.31 185.596 1947.3 190.812 1943.26 194.588C1939.23 198.3 1933.5 200.156 1926.08 200.156H1908.99V225.5H1896.7ZM1908.99 190.46H1924.16C1932.99 190.46 1937.41 186.62 1937.41 178.94C1937.41 171.324 1932.99 167.516 1924.16 167.516H1908.99V190.46ZM1964.13 225.5V157.82H1976.42V186.044H2011.27V157.82H2023.55V225.5H2011.27V196.316H1976.42V225.5H1964.13ZM2043.18 225.5V157.82H2055.47V225.5H2043.18ZM2106.47 226.46C2099.43 226.46 2093.38 225.052 2088.32 222.236C2083.33 219.356 2079.49 215.324 2076.8 210.14C2074.12 204.892 2072.77 198.716 2072.77 191.612C2072.77 184.508 2074.12 178.364 2076.8 173.18C2079.49 167.996 2083.33 163.996 2088.32 161.18C2093.38 158.3 2099.43 156.86 2106.47 156.86C2111.01 156.86 2115.3 157.564 2119.33 158.972C2123.43 160.38 2126.79 162.396 2129.41 165.02L2125.38 174.812C2122.5 172.38 2119.56 170.62 2116.55 169.532C2113.54 168.38 2110.31 167.804 2106.85 167.804C2100 167.804 2094.79 169.884 2091.2 174.044C2087.62 178.14 2085.83 183.996 2085.83 191.612C2085.83 199.228 2087.62 205.116 2091.2 209.276C2094.79 213.436 2100 215.516 2106.85 215.516C2110.31 215.516 2113.54 214.972 2116.55 213.884C2119.56 212.732 2122.5 210.94 2125.38 208.508L2129.41 218.3C2126.79 220.86 2123.43 222.876 2119.33 224.348C2115.3 225.756 2111.01 226.46 2106.47 226.46ZM2166.86 226.46C2161.55 226.46 2156.62 225.788 2152.07 224.444C2147.53 223.036 2143.69 221.148 2140.55 218.78L2144.3 209.084C2147.43 211.324 2150.86 213.052 2154.57 214.268C2158.35 215.484 2162.44 216.092 2166.86 216.092C2171.91 216.092 2175.59 215.26 2177.9 213.596C2180.2 211.868 2181.35 209.66 2181.35 206.972C2181.35 204.732 2180.52 202.972 2178.86 201.692C2177.26 200.412 2174.47 199.356 2170.51 198.524L2159.95 196.316C2147.91 193.756 2141.9 187.58 2141.9 177.788C2141.9 173.564 2143.02 169.884 2145.26 166.748C2147.5 163.612 2150.6 161.18 2154.57 159.452C2158.54 157.724 2163.11 156.86 2168.3 156.86C2172.91 156.86 2177.23 157.564 2181.26 158.972C2185.29 160.316 2188.65 162.236 2191.34 164.732L2187.59 173.948C2182.28 169.468 2175.82 167.228 2168.2 167.228C2163.79 167.228 2160.33 168.156 2157.83 170.012C2155.34 171.868 2154.09 174.3 2154.09 177.308C2154.09 179.612 2154.86 181.468 2156.39 182.876C2157.93 184.22 2160.55 185.276 2164.27 186.044L2174.73 188.252C2181.07 189.596 2185.77 191.708 2188.84 194.588C2191.98 197.468 2193.55 201.308 2193.55 206.108C2193.55 210.14 2192.46 213.692 2190.28 216.764C2188.11 219.836 2185 222.236 2180.97 223.964C2177 225.628 2172.3 226.46 2166.86 226.46ZM2205.75 225.5V212.156H2219.19V225.5H2205.75ZM2236.57 225.5V157.82H2248.86V215.036H2281.3V225.5H2236.57ZM2320.68 226.46C2311.4 226.46 2304.3 224.06 2299.37 219.26C2294.51 214.396 2292.07 207.228 2292.07 197.756V157.82H2304.36V197.66C2304.36 203.74 2305.74 208.316 2308.49 211.388C2311.31 214.396 2315.37 215.9 2320.68 215.9C2331.5 215.9 2336.91 209.82 2336.91 197.66V157.82H2349.1V197.756C2349.1 207.228 2346.7 214.396 2341.9 219.26C2337.1 224.06 2330.03 226.46 2320.68 226.46ZM2360.46 225.5L2391.09 157.82H2401.17L2431.79 225.5H2419.31L2412.59 209.852H2379.57L2372.94 225.5H2360.46ZM2395.98 171.164L2383.79 200.06H2408.37L2396.18 171.164H2395.98Z" fill="#24273A"/>
</svg>
